<svg width="24" height="24" viewBox="0 0 24 24" fill="none" xmlns="http://www.w3.org/2000/svg">
  <path d="M21 11.5C21 13.1569 19.6569 14.5 18 14.5C16.3431 14.5 15 13.1569 15 11.5C15 9.84315 16.3431 8.5 18 8.5C19.6569 8.5 21 9.84315 21 11.5Z" fill="#C62F2F"/>
  <path d="M9 11.5C9 13.1569 7.65685 14.5 6 14.5C4.34315 14.5 3 13.1569 3 11.5C3 9.84315 4.34315 8.5 6 8.5C7.65685 8.5 9 9.84315 9 11.5Z" fill="#C62F2F"/>
  <path d="M18 8.5C18 6.61438 17.1571 4.82838 15.6569 3.51472C14.1566 2.20106 12.1217 1.5 10 1.5C7.87827 1.5 5.84344 2.20106 4.34315 3.51472C2.84285 4.82838 2 6.61438 2 8.5" stroke="#C62F2F" stroke-width="2"/>
  <path d="M18 14.5C18 16.3856 17.1571 18.1716 15.6569 19.4853C14.1566 20.7989 12.1217 21.5 10 21.5C7.87827 21.5 5.84344 20.7989 4.34315 19.4853C2.84285 18.1716 2 16.3856 2 14.5" stroke="#C62F2F" stroke-width="2"/>
</svg> 